<?xml version="1.0" encoding="UTF-8"?> <!-- Generator: Adobe Illustrator 25.2.1, SVG Export Plug-In . SVG Version: 6.00 Build 0) --> <svg xmlns="http://www.w3.org/2000/svg" xmlns:xlink="http://www.w3.org/1999/xlink" version="1.1" id="Layer_1" x="0px" y="0px" width="317.6px" height="51.4px" viewBox="0 0 317.6 51.4" style="enable-background:new 0 0 317.6 51.4;" xml:space="preserve"> <style type="text/css"> .st0{fill-rule:evenodd;clip-rule:evenodd;fill:#FF8F34;} .st1{fill-rule:evenodd;clip-rule:evenodd;fill:#A9D042;} .st2{fill-rule:evenodd;clip-rule:evenodd;} </style> <g id="Layer_2_1_"> </g> <g> <path class="st0" d="M16.7,9.3c-3.5-0.6-6.2,3.7-10.8,9.6c0,0,6.5-7.3,9.8-7.3c1.6,0,1,1.4,1,1.4C18.2,11.1,17.8,9.7,16.7,9.3z"></path> <path class="st1" d="M7.5,21.8c3.3-3,6.2-4.8,8.9-7.8c3-3.3,1.2-4.5,1.1-4.6c0,0,5.8,3.5-1.6,7.8C12.6,19.2,7.5,21.8,7.5,21.8z"></path> <path class="st1" d="M45.6,28.5c0-2.6,0.9-4.8,2.8-6.7c1.9-1.8,4.1-2.7,6.7-2.7c0,0,6.1,0,6.7,0c0.7,0-0.3,2.5-1.2,3.4 s-2.1,1.4-3.4,1.4h-1.1c-1.5,0-2.9,0.6-3.9,1.7c-1.1,1.1-1.6,2.4-1.6,4v4.2c0,2.6-0.9,4.8-2.8,6.7c-1.9,1.8-4.1,2.7-6.7,2.7 c0,0-6.1,0-6.7,0c-0.6,0,0.3-2.4,1.2-3.4c0.9-0.9,2.1-1.4,3.4-1.4h1.1c1.6,0,2.9-0.6,4-1.7c1.1-1.1,1.6-2.4,1.6-4L45.6,28.5 L45.6,28.5z"></path> <path class="st1" d="M86.2,43.1c-3.3,0-6.2-1.2-8.6-3.5S74,34.4,74,31.1s1.2-6.2,3.6-8.5c2.4-2.4,5.2-3.5,8.6-3.5c0,0,6.2,0,6.9,0 c0.7,0-0.2,2.4-1.2,3.4c-0.9,0.9-2.1,1.4-3.4,1.4h-2.3c-2,0-3.7,0.7-5.1,2.1S79,29.1,79,31.1s0.7,3.7,2.1,5.1 c1.4,1.4,3.1,2.1,5.1,2.1h2.3c1.3,0,2.4,0.5,3.4,1.4c0.9,0.9,1.8,3.4,1.2,3.4C92.5,43.1,86.2,43.1,86.2,43.1z"></path> <path class="st1" d="M60.6,28.5c0-2.6,0.9-4.8,2.8-6.7c1.9-1.8,4.1-2.7,6.7-2.7c0,0,6.1,0,6.7,0c0.7,0-0.3,2.5-1.2,3.4 c-0.9,0.9-2.1,1.4-3.4,1.4h-1.1c-1.5,0-2.9,0.6-3.9,1.7c-1.1,1.1-1.6,2.4-1.6,4v4.2c0,2.6-0.9,4.8-2.8,6.7 c-1.9,1.8-4.1,2.7-6.7,2.7c0,0-6.1,0-6.7,0c-0.6,0,0.3-2.4,1.2-3.4c0.9-0.9,2.1-1.4,3.4-1.4h1c1.6,0,2.9-0.6,4-1.7 c1.1-1.1,1.6-2.4,1.6-4V28.5z"></path> <path class="st1" d="M30.4,39.7c-0.9-0.9-2-1.4-3.2-1.4c-1.6-0.1-2.6,0.7-3.6-3.3c-1.9-6.5-2.7-11.9-2.8-15 c3.9-2.7,6.7-6.6,7.9-11.3c0.6-2.5,1.1-10.5-3.8-8.3c-1.1,0.5-3.1,3.7-1,5.2c2.3,1.7,1,7-2.4,9.8c-4.1,3.8-9,5.7-13.5,8.8 c-6.4,4.4-9.6,11.1-5.3,12.2c1.7,0.4,3.4-0.9,4.2-5.4c0.6-3.1,3.5-4.7,6.3-6.4c0.5,1.3,0.9,4-1,9.3c-3,8.2-11,10.6-7.2,11.6 c3.7,1,7.9,0,8.4-2s2.1-12.7,4.7-13s0.7,6.9,2.5,10.4c0.5,1,1.8,1.8,2.7,2c0.4,0.1,1,0.1,1.6,0.1l0,0c0,0,6.1,0,6.7,0 C32.2,43.1,31.3,40.6,30.4,39.7z"></path> <g> <path class="st2" d="M23.1,46.6c0.1,0,0.2,0,0.2-0.1s0.1-0.2,0.1-0.4s0-0.3,0.1-0.4c0.1-0.1,0.1-0.2,0.2-0.3s0.2-0.2,0.3-0.3 c0.1-0.1,0.3-0.2,0.4-0.2c0.1-0.1,0.2-0.1,0.4-0.1v0.5c-0.2,0.1-0.4,0.2-0.6,0.4c-0.1,0.2-0.2,0.4-0.2,0.7c0,0.2,0.1,0.3,0.2,0.3 h0.3h0.3V47h-0.3H24c-0.2,0-0.2,0.1-0.2,0.3v0.2v2h-0.5v-2v-0.2c0-0.1,0-0.1-0.1-0.2c0,0-0.1-0.1-0.2-0.1h-0.3v-0.5L23.1,46.6 L23.1,46.6z"></path> <path class="st2" d="M27.8,48.5c0,0.3-0.1,0.5-0.4,0.7c-0.2,0.2-0.5,0.3-0.9,0.3s-0.7-0.1-0.9-0.3c-0.2-0.2-0.4-0.4-0.4-0.7v-1.9 h0.5v1.8c0,0.2,0.1,0.4,0.2,0.5c0.2,0.1,0.3,0.2,0.5,0.2s0.4-0.1,0.5-0.2c0.1-0.1,0.2-0.3,0.2-0.5v-1.7h0.5v1.8H27.8z"></path> <path class="st2" d="M28.7,46.6h0.2c0.1,0,0.1-0.1,0.1-0.2v-0.1v-0.5h0.5v0.5v0.2c0,0.1,0,0.1,0.1,0.1h0.6V47h-0.4h-0.2 c-0.1,0-0.1,0-0.1,0v0.1v0.1V48c0,0.3,0.1,0.6,0.2,0.7c0.1,0.1,0.2,0.2,0.3,0.2c0.1,0,0.2,0.1,0.3,0.1v0.5c-0.4,0-0.7-0.2-0.9-0.4 c-0.2-0.2-0.3-0.5-0.3-0.9v-0.9c0-0.1,0-0.2,0-0.2H29h-0.2v-0.5H28.7z"></path> <path class="st2" d="M33.5,48.5c0,0.3-0.1,0.5-0.4,0.7c-0.2,0.2-0.5,0.3-0.9,0.3c-0.4,0-0.7-0.1-0.9-0.3c-0.2-0.2-0.4-0.4-0.4-0.7 v-1.9h0.5v1.8c0,0.2,0.1,0.4,0.2,0.5C31.8,49,32,49,32.2,49s0.4-0.1,0.5-0.2c0.1-0.1,0.2-0.3,0.2-0.5v-1.7h0.5L33.5,48.5 L33.5,48.5z"></path> <path class="st2" d="M34.6,46.6h0.5v0.2c0,0.1,0,0.1,0,0.1l0,0c0,0,0,0,0.1,0l0.2-0.1l0.2-0.1c0.1,0,0.2-0.1,0.3-0.1V47h-0.1 c-0.1,0-0.3,0.1-0.5,0.2c-0.2,0.1-0.3,0.3-0.3,0.7v1.6h-0.5L34.6,46.6L34.6,46.6z"></path> <path class="st2" d="M37.4,48.2c-0.1,0-0.2,0-0.2,0l-0.1,0.1c0,0.1,0.1,0.2,0.2,0.4c0.1,0.2,0.4,0.3,0.7,0.3 c0.2,0,0.4-0.1,0.7-0.3L39,49c-0.2,0.1-0.3,0.3-0.5,0.3c-0.2,0.1-0.3,0.1-0.5,0.1c-0.4,0-0.8-0.1-1.1-0.4 c-0.3-0.3-0.4-0.6-0.4-1.1c0-0.4,0.1-0.8,0.4-1.1c0.3-0.3,0.6-0.4,1-0.4s0.7,0.2,1,0.5s0.5,0.7,0.5,1.1v0.2L37.4,48.2L37.4,48.2z M37.4,47.8h1.3c0.1,0,0.2,0,0.3,0c0,0,0,0,0-0.1c0,0,0-0.1-0.1-0.2c-0.1-0.1-0.1-0.2-0.2-0.2c-0.1-0.1-0.2-0.1-0.3-0.2 C38.3,47,38.1,47,38,47s-0.2,0-0.4,0.1c-0.1,0.1-0.2,0.1-0.3,0.2c-0.1,0.1-0.1,0.2-0.2,0.2c0,0.1-0.1,0.1-0.1,0.2 c0,0.1,0,0.1,0.1,0.1H37.4z"></path> <path class="st2" d="M43.7,48.2c-0.1,0-0.2,0-0.2,0l-0.1,0.1c0,0.1,0.1,0.2,0.2,0.4c0.1,0.2,0.4,0.3,0.7,0.3 c0.2,0,0.4-0.1,0.7-0.3l0.3,0.3c-0.2,0.1-0.3,0.3-0.5,0.3c-0.2,0.1-0.3,0.1-0.5,0.1c-0.4,0-0.8-0.1-1.1-0.4 c-0.3-0.3-0.4-0.6-0.4-1.1c0-0.4,0.1-0.8,0.4-1.1c0.3-0.3,0.6-0.4,1-0.4s0.7,0.2,1,0.5s0.5,0.7,0.5,1.1v0.2L43.7,48.2L43.7,48.2z M43.6,47.8h1.3c0.1,0,0.2,0,0.3,0c0,0,0,0,0-0.1c0,0,0-0.1-0.1-0.2c-0.1-0.1-0.1-0.2-0.2-0.2c-0.1-0.1-0.2-0.1-0.3-0.2 c-0.1,0-0.2-0.1-0.3-0.1s-0.2,0-0.4,0.1c-0.1,0.1-0.2,0.1-0.3,0.2c-0.1,0.1-0.1,0.2-0.2,0.2c0,0.1-0.1,0.1-0.1,0.2 c0,0.1,0,0.1,0.1,0.1H43.6z"></path> <path class="st2" d="M49.5,48c0,0.4-0.1,0.8-0.4,1.1c-0.3,0.3-0.6,0.4-1.1,0.4c-0.4,0-0.7-0.1-1-0.4c-0.3-0.3-0.4-0.6-0.4-1.1 c0-0.4,0.1-0.8,0.4-1.1c0.3-0.3,0.6-0.4,1-0.4c0.2,0,0.3,0,0.5,0.1s0.3,0.1,0.3,0.1l0.1,0.1l0,0l0,0c0,0,0,0,0-0.1v-2h0.5V48H49.5 z M47.1,48c0,0.3,0.1,0.5,0.3,0.7s0.4,0.3,0.7,0.3s0.5-0.1,0.7-0.3s0.3-0.4,0.3-0.7s-0.1-0.5-0.3-0.7S48.3,47,48,47 s-0.5,0.1-0.7,0.3C47.2,47.5,47.1,47.7,47.1,48z"></path> <path class="st2" d="M53.2,48.5c0,0.3-0.1,0.5-0.4,0.7c-0.2,0.2-0.5,0.3-0.9,0.3s-0.7-0.1-0.9-0.3s-0.4-0.4-0.4-0.7v-1.9h0.5v1.8 c0,0.2,0.1,0.4,0.2,0.5c0.2,0.1,0.3,0.2,0.5,0.2s0.4-0.1,0.5-0.2c0.1-0.1,0.2-0.3,0.2-0.5v-1.7H53v1.8H53.2z"></path> <path class="st2" d="M56.4,47.3c-0.1-0.1-0.2-0.2-0.3-0.2C56,47,55.8,47,55.7,47c-0.3,0-0.5,0.1-0.7,0.3s-0.3,0.4-0.3,0.7 s0.1,0.5,0.3,0.7s0.5,0.3,0.7,0.3s0.5-0.1,0.7-0.3l0.3,0.3c-0.1,0.1-0.2,0.1-0.2,0.2c0,0-0.1,0.1-0.3,0.2 c-0.2,0.1-0.3,0.1-0.5,0.1c-0.4,0-0.8-0.1-1-0.4c-0.3-0.3-0.4-0.6-0.4-1.1c0-0.4,0.1-0.8,0.4-1.1c0.3-0.3,0.6-0.4,1-0.4 c0.1,0,0.3,0,0.4,0.1c0.1,0,0.2,0.1,0.3,0.1s0.2,0.1,0.2,0.1s0.1,0.1,0.2,0.2L56.4,47.3z"></path> <path class="st2" d="M59.9,49.2c-0.1,0.1-0.2,0.2-0.4,0.2c-0.2,0.1-0.3,0.1-0.5,0.1c-0.4,0-0.7-0.1-1-0.4 c-0.3-0.3-0.4-0.7-0.4-1.1c0-0.4,0.1-0.8,0.4-1.1c0.3-0.3,0.6-0.4,1-0.4c0.3,0,0.6,0.1,0.9,0.3c0.3,0.2,0.4,0.4,0.5,0.7l0.3,1.9 h-0.5L60.1,49L59.9,49.2L59.9,49.2z M58,48c0,0.3,0.1,0.5,0.3,0.7S58.7,49,59,49s0.5-0.1,0.7-0.3S60,48.3,60,48s-0.1-0.5-0.3-0.7 S59.3,47,59,47s-0.5,0.1-0.7,0.3S58,47.7,58,48z"></path> <path class="st2" d="M61.3,46.6h0.2c0.1,0,0.1-0.1,0.1-0.2v-0.1v-0.5h0.5v0.5v0.2c0,0.1,0,0.1,0.1,0.1h0.6V47h-0.4h-0.2 c-0.1,0-0.1,0-0.1,0v0.1v0.1V48c0,0.3,0.1,0.6,0.2,0.7c0.1,0.1,0.2,0.2,0.3,0.2s0.2,0.1,0.3,0.1v0.5c-0.4,0-0.7-0.2-0.9-0.4 s-0.3-0.5-0.3-0.9v-0.9c0-0.1,0-0.2,0-0.2h-0.1h-0.2L61.3,46.6L61.3,46.6z"></path> <path class="st2" d="M63.9,45.5c0.1,0,0.2,0,0.2,0.1c0.1,0.1,0.1,0.1,0.1,0.2c0,0.1,0,0.2-0.1,0.2c-0.1,0.1-0.1,0.1-0.2,0.1 c-0.1,0-0.2,0-0.2-0.1c-0.1-0.1-0.1-0.1-0.1-0.2c0-0.1,0-0.2,0.1-0.2C63.7,45.5,63.8,45.5,63.9,45.5L63.9,45.5z M63.6,46.6h0.5 v2.9h-0.5V46.6z"></path> <path class="st2" d="M66.6,46.5c0.4,0,0.8,0.1,1,0.4c0.3,0.3,0.4,0.6,0.4,1.1c0,0.4-0.1,0.8-0.4,1c-0.3,0.3-0.6,0.4-1,0.4 s-0.7-0.1-1-0.4c-0.3-0.3-0.4-0.6-0.4-1l0,0c0-0.4,0.1-0.8,0.4-1C65.8,46.7,66.2,46.5,66.6,46.5L66.6,46.5z M65.6,48 c0,0.3,0.1,0.5,0.3,0.7c0.2,0.2,0.4,0.3,0.7,0.3c0.3,0,0.5-0.1,0.7-0.3s0.3-0.4,0.3-0.7s-0.1-0.5-0.3-0.7 c-0.2-0.2-0.4-0.3-0.7-0.3c-0.3,0-0.5,0.1-0.7,0.3C65.7,47.5,65.6,47.7,65.6,48z"></path> <path class="st2" d="M69.1,47.5c0-0.3,0.1-0.5,0.4-0.7c0.2-0.2,0.5-0.3,0.9-0.3c0.3,0,0.6,0.1,0.9,0.3c0.2,0.2,0.4,0.4,0.4,0.7 v1.9h-0.5v-1.7c0-0.2-0.1-0.4-0.2-0.5C70.9,47,70.7,47,70.5,47s-0.4,0.1-0.5,0.2c-0.1,0.1-0.2,0.3-0.2,0.5v1.7h-0.5v-1.9H69.1z"></path> <path class="st2" d="M72.9,49.7L72.9,49.7L72.9,49.7l-0.2-0.3c-0.1-0.1-0.1-0.2-0.1-0.3s0-0.2,0.1-0.3s0.2-0.1,0.3-0.1 c0.1,0,0.2,0,0.3,0.1c0.1,0.1,0.1,0.2,0.1,0.3s0,0.1-0.1,0.2L73,50h-0.3L72.9,49.7z"></path> <path class="st2" d="M76.6,46.6h0.2c0.1,0,0.1-0.1,0.1-0.2v-0.1v-0.5h0.5v0.5v0.2c0,0.1,0,0.1,0.1,0.1h0.6V47h-0.4h-0.2 c-0.1,0-0.1,0-0.1,0v0.1v0.1V48c0,0.3,0.1,0.6,0.2,0.7c0.1,0.1,0.2,0.2,0.3,0.2c0.1,0,0.2,0.1,0.3,0.1v0.5c-0.4,0-0.7-0.2-0.9-0.4 c-0.2-0.2-0.3-0.5-0.3-0.9v-0.9c0-0.1,0-0.2,0-0.2h-0.1h-0.2L76.6,46.6L76.6,46.6z"></path> <path class="st2" d="M80.2,46.5c0.4,0,0.8,0.1,1,0.4c0.3,0.3,0.4,0.6,0.4,1.1c0,0.4-0.1,0.8-0.4,1c-0.3,0.3-0.6,0.4-1,0.4 s-0.7-0.1-1-0.4c-0.3-0.3-0.4-0.6-0.4-1l0,0c0-0.4,0.1-0.8,0.4-1C79.4,46.7,79.8,46.5,80.2,46.5L80.2,46.5z M79.2,48 c0,0.3,0.1,0.5,0.3,0.7c0.2,0.2,0.4,0.3,0.7,0.3c0.3,0,0.5-0.1,0.7-0.3s0.3-0.4,0.3-0.7s-0.1-0.5-0.3-0.7 c-0.2-0.2-0.4-0.3-0.7-0.3c-0.3,0-0.5,0.1-0.7,0.3S79.2,47.7,79.2,48z"></path> <path class="st2" d="M85.5,48c0,0.4-0.1,0.8-0.4,1.1s-0.6,0.4-1.1,0.4c-0.4,0-0.7-0.1-1-0.4c-0.3-0.3-0.4-0.6-0.4-1.1 c0-0.4,0.1-0.8,0.4-1.1s0.6-0.4,1-0.4c0.2,0,0.3,0,0.5,0.1s0.3,0.1,0.3,0.1l0.1,0.1l0,0l0,0c0,0,0,0,0-0.1v-2h0.5L85.5,48L85.5,48 z M83,48c0,0.3,0.1,0.5,0.3,0.7c0.2,0.2,0.4,0.3,0.7,0.3c0.3,0,0.5-0.1,0.7-0.3S85,48.3,85,48s-0.1-0.5-0.3-0.7 C84.5,47.1,84.3,47,84,47s-0.5,0.1-0.7,0.3C83.1,47.5,83,47.7,83,48z"></path> <path class="st2" d="M88.8,49.2c-0.1,0.1-0.2,0.2-0.4,0.2c-0.2,0.1-0.3,0.1-0.5,0.1c-0.4,0-0.7-0.1-1-0.4 c-0.3-0.3-0.4-0.7-0.4-1.1c0-0.4,0.1-0.8,0.4-1.1s0.6-0.4,1-0.4c0.3,0,0.6,0.1,0.9,0.3s0.4,0.4,0.5,0.7l0.3,1.9h-0.5l0-0.4 L88.8,49.2L88.8,49.2z M87,48c0,0.3,0.1,0.5,0.3,0.7c0.2,0.2,0.4,0.3,0.7,0.3c0.3,0,0.5-0.1,0.7-0.3S89,48.3,89,48 s-0.1-0.5-0.3-0.7C88.5,47.1,88.3,47,88,47s-0.5,0.1-0.7,0.3C87.1,47.5,87,47.7,87,48z"></path> <path class="st2" d="M90.8,46.6l0.7,1.9c0,0.1,0.1,0.1,0.1,0.1s0.1-0.1,0.1-0.2l0.7-1.8h0.5l-1.8,4.6h-0.5l0.6-1.5 c0-0.1,0-0.2,0-0.2c0-0.1,0-0.1-0.1-0.3l-1-2.5L90.8,46.6z"></path> </g> <path class="st1" d="M94.5,18.5c0.1-0.2,0.2-0.4,0.3-0.5c0.1-0.1,0.3-0.2,0.5-0.3c0.2-0.1,0.4-0.1,0.6-0.1s0.4,0,0.6,0.1 s0.4,0.2,0.5,0.3c0.1,0.1,0.3,0.3,0.3,0.5c0.1,0.2,0.1,0.4,0.1,0.6s0,0.4-0.1,0.6s-0.2,0.4-0.3,0.5c-0.1,0.1-0.3,0.2-0.5,0.3 c-0.2,0.1-0.4,0.1-0.6,0.1s-0.4,0-0.6-0.1s-0.4-0.2-0.5-0.3c-0.1-0.1-0.2-0.3-0.3-0.5c-0.1-0.2-0.1-0.4-0.1-0.6 S94.4,18.7,94.5,18.5L94.5,18.5z M94.6,19.7c0.1,0.2,0.2,0.3,0.3,0.5c0.1,0.1,0.3,0.2,0.5,0.3c0.2,0.1,0.4,0.1,0.6,0.1 s0.4,0,0.6-0.1s0.3-0.2,0.5-0.3c0.1-0.1,0.2-0.3,0.3-0.5c0.1-0.2,0.1-0.4,0.1-0.6s0-0.4-0.1-0.6s-0.2-0.3-0.3-0.5 c-0.1-0.1-0.3-0.2-0.5-0.3c-0.2-0.1-0.4-0.1-0.6-0.1s-0.4,0-0.6,0.1s-0.3,0.2-0.5,0.3c-0.1,0.1-0.2,0.3-0.3,0.5 c-0.1,0.2-0.1,0.4-0.1,0.6C94.4,19.3,94.5,19.5,94.6,19.7L94.6,19.7z M96,18.3h-0.6v1.8h0.1v-0.8h0.4H96l0,0l0,0l0.5,0.8h0.1 l-0.5-0.8c0.1,0,0.1,0,0.2,0s0.1,0,0.1-0.1l0.1-0.1c0-0.1,0-0.1,0-0.2c0-0.2,0-0.3-0.1-0.4C96.3,18.3,96.2,18.3,96,18.3L96,18.3z M96.1,19.1c0.1,0,0.1,0,0.2-0.1c0.1,0,0.1-0.1,0.1-0.1c0-0.1,0.1-0.1,0.1-0.2s0-0.1,0-0.2s-0.1-0.1-0.1-0.1s-0.1,0-0.2-0.1 c-0.1,0-0.1,0-0.2,0h-0.5v0.8h0.4C96,19.2,96,19.1,96.1,19.1z"></path> </g> <g> <path d="M108,18.4c-0.2-0.3-0.4-0.5-0.6-0.6s-0.5-0.2-0.9-0.2s-0.7,0.1-1,0.4c-0.3,0.2-0.5,0.5-0.5,0.9c0,0.3,0.1,0.6,0.4,0.8 c0.2,0.2,0.5,0.4,0.9,0.5l0.6,0.3c0.3,0.1,0.6,0.3,0.9,0.4c0.3,0.2,0.5,0.3,0.7,0.6c0.2,0.2,0.4,0.5,0.5,0.7c0.1,0.3,0.2,0.6,0.2,1 s-0.1,0.8-0.2,1.1c-0.1,0.3-0.4,0.6-0.6,0.9c-0.3,0.3-0.6,0.5-0.9,0.6c-0.4,0.1-0.7,0.2-1.1,0.2s-0.7-0.1-1-0.2s-0.6-0.3-0.9-0.5 c-0.2-0.2-0.5-0.5-0.6-0.8s-0.3-0.6-0.3-1l1.1-0.2c0,0.5,0.2,0.9,0.5,1.2c0.3,0.3,0.8,0.5,1.2,0.5c0.5,0,0.9-0.2,1.2-0.5 c0.3-0.3,0.5-0.8,0.5-1.2c0-0.4-0.2-0.8-0.5-1.1c-0.1-0.1-0.3-0.2-0.5-0.3c-0.2-0.1-0.4-0.2-0.6-0.3l-0.6-0.3 c-0.3-0.1-0.6-0.3-0.8-0.4s-0.4-0.3-0.6-0.5s-0.3-0.4-0.4-0.6s-0.2-0.5-0.2-0.8c0-0.4,0.1-0.7,0.2-1s0.3-0.5,0.6-0.7 s0.5-0.4,0.9-0.5s0.7-0.2,1-0.2c0.5,0,1,0.1,1.4,0.4c0.4,0.2,0.7,0.6,1,1L108,18.4z"></path> <path d="M118.2,16.9c0.6,0.2,1.1,0.6,1.5,1s0.8,0.9,1,1.5s0.4,1.2,0.4,1.8c0,0.7-0.1,1.3-0.4,1.9s-0.6,1.1-1,1.5s-0.9,0.8-1.5,1 S117,26,116.4,26c-0.6,0-1.3-0.1-1.8-0.4c-0.6-0.2-1.1-0.6-1.5-1s-0.8-0.9-1-1.5s-0.4-1.2-0.4-1.9c0-0.6,0.1-1.2,0.4-1.8 c0.2-0.6,0.6-1.1,1-1.5s0.9-0.8,1.5-1s1.2-0.4,1.8-0.4S117.7,16.6,118.2,16.9z M117.8,24.6c0.4-0.2,0.8-0.4,1.2-0.8 c0.3-0.3,0.6-0.7,0.8-1.2c0.2-0.4,0.3-0.9,0.3-1.4s-0.1-1-0.3-1.4s-0.4-0.8-0.8-1.2c-0.3-0.3-0.7-0.6-1.2-0.8s-0.9-0.3-1.4-0.3 s-1,0.1-1.4,0.3s-0.8,0.5-1.2,0.8c-0.3,0.3-0.6,0.7-0.8,1.2c-0.2,0.4-0.3,0.9-0.3,1.4s0.1,1,0.3,1.4c0.2,0.4,0.4,0.8,0.8,1.2 s0.7,0.6,1.2,0.8c0.4,0.2,0.9,0.3,1.4,0.3S117.4,24.8,117.8,24.6z"></path> <path d="M124,16.3l6.8,7.1v-6.7h1.1v9.4l-6.8-7.1v6.7H124V16.3z"></path> <path d="M134.5,16.7h1.3l2.2,3.9l2.2-3.9h1.3l-3,5.1v3.9h-1.1v-3.9L134.5,16.7z"></path> <path d="M108,30.4c-0.2-0.3-0.4-0.5-0.6-0.6s-0.5-0.2-0.9-0.2s-0.7,0.1-1,0.4c-0.3,0.2-0.5,0.5-0.5,0.9c0,0.3,0.1,0.6,0.4,0.8 c0.2,0.2,0.5,0.4,0.9,0.5l0.6,0.3c0.3,0.1,0.6,0.3,0.9,0.4c0.3,0.2,0.5,0.3,0.7,0.6c0.2,0.2,0.4,0.5,0.5,0.7c0.1,0.3,0.2,0.6,0.2,1 s-0.1,0.8-0.2,1.1s-0.4,0.7-0.6,0.9s-0.6,0.5-0.9,0.6s-0.7,0.2-1.1,0.2s-0.7-0.1-1-0.2c-0.3-0.1-0.6-0.3-0.9-0.5 c-0.2-0.2-0.5-0.5-0.6-0.8c-0.2-0.3-0.3-0.6-0.3-1l1.1-0.2c0,0.5,0.2,0.9,0.5,1.2s0.8,0.5,1.2,0.5c0.5,0,0.9-0.2,1.2-0.5 c0.3-0.3,0.5-0.8,0.5-1.2s-0.2-0.8-0.5-1.1c-0.1-0.1-0.3-0.2-0.5-0.3s-0.4-0.2-0.6-0.3l-0.6-0.3c-0.3-0.1-0.6-0.3-0.8-0.4 s-0.4-0.3-0.6-0.5s-0.3-0.4-0.4-0.6c-0.1-0.2-0.2-0.5-0.2-0.8c0-0.4,0.1-0.7,0.2-1s0.3-0.5,0.6-0.7s0.5-0.4,0.9-0.5 c0.3-0.1,0.7-0.2,1-0.2c0.5,0,1,0.1,1.4,0.4s0.7,0.6,1,1L108,30.4z"></path> <path d="M113.3,28.7V34c0,0.4,0,0.8,0.1,1.1s0.2,0.6,0.3,0.9c0.2,0.3,0.4,0.5,0.7,0.6s0.6,0.2,1.1,0.2s0.8-0.1,1.1-0.2 c0.3-0.2,0.5-0.4,0.7-0.6s0.3-0.6,0.3-0.9s0.1-0.7,0.1-1.1v-5.3h1.1v5.7c0,0.5-0.1,1-0.2,1.4s-0.4,0.8-0.7,1.1 c-0.3,0.3-0.6,0.6-1,0.7S116,38,115.5,38s-1-0.1-1.4-0.3s-0.8-0.4-1-0.7c-0.3-0.3-0.5-0.7-0.7-1.1s-0.2-0.9-0.2-1.4v-5.7 L113.3,28.7L113.3,28.7z"></path> <path d="M130.6,33.2v0.4c0,0.6-0.1,1.2-0.3,1.7s-0.5,1-0.9,1.4s-0.8,0.7-1.4,0.9c-0.5,0.2-1.1,0.3-1.7,0.3c-0.6,0-1.2-0.1-1.8-0.4 c-0.6-0.2-1-0.6-1.5-1c-0.4-0.4-0.7-0.9-1-1.5c-0.2-0.6-0.4-1.2-0.4-1.8s0.1-1.2,0.4-1.8c0.2-0.6,0.6-1.1,1-1.5s0.9-0.8,1.5-1 s1.2-0.4,1.8-0.4c0.7,0,1.4,0.2,2,0.5c0.7,0.3,1.2,0.7,1.6,1.3l-0.8,0.8c-0.3-0.4-0.7-0.8-1.3-1.1c-0.5-0.3-1-0.4-1.6-0.4 c-0.5,0-1,0.1-1.4,0.3c-0.4,0.2-0.8,0.5-1.2,0.8s-0.6,0.7-0.8,1.2c-0.2,0.4-0.3,0.9-0.3,1.4s0.1,0.9,0.3,1.4 c0.2,0.4,0.4,0.8,0.8,1.2c0.3,0.4,0.7,0.6,1.1,0.8c0.4,0.2,0.9,0.3,1.4,0.3c0.4,0,0.7-0.1,1-0.2c0.3-0.1,0.7-0.3,0.9-0.6 c0.3-0.3,0.5-0.5,0.7-0.9s0.3-0.7,0.3-1h-2v-1h3.6V33.2z"></path> <path d="M133.6,28.7h4.9v1h-3.7v2.5h3.6v1h-3.6v3.4h3.7v1h-4.9V28.7z"></path> <path d="M143.2,31.8L143.2,31.8l-1.1,6H141l1.8-9.4l3.1,7.1l3.1-7.1l1.8,9.4h-1.2l-1.1-6l0,0l-2.7,6.2L143.2,31.8z"></path> <path d="M155.1,35.5l-1,2.3h-1.2l4.3-9.4l4.3,9.4h-1.2l-1-2.3H155.1z M157.2,30.8l-1.6,3.7h3.2L157.2,30.8z"></path> <path d="M110.6,42.4c-0.3-0.3-0.7-0.5-1.1-0.7s-0.8-0.2-1.3-0.2s-1,0.1-1.4,0.3s-0.8,0.5-1.1,0.8c-0.3,0.3-0.6,0.7-0.8,1.2 c-0.2,0.4-0.3,0.9-0.3,1.4s0.1,1,0.3,1.4c0.2,0.4,0.4,0.8,0.8,1.2c0.3,0.3,0.7,0.6,1.1,0.8s0.9,0.3,1.4,0.3c0.4,0,0.9-0.1,1.3-0.2 c0.4-0.2,0.8-0.4,1.1-0.7v1.3c-0.3,0.2-0.7,0.4-1.1,0.5s-0.8,0.2-1.2,0.2c-0.6,0-1.2-0.1-1.8-0.4c-0.6-0.2-1.1-0.6-1.5-1 s-0.8-0.9-1-1.5s-0.4-1.2-0.4-1.8c0-0.7,0.1-1.3,0.4-1.9s0.6-1.1,1-1.5s1-0.8,1.5-1s1.2-0.4,1.9-0.4c0.4,0,0.8,0.1,1.2,0.2 c0.4,0.1,0.8,0.3,1.1,0.5L110.6,42.4L110.6,42.4z"></path> <path d="M119.7,40.9c0.6,0.2,1.1,0.6,1.5,1s0.8,0.9,1,1.5s0.4,1.2,0.4,1.8c0,0.7-0.1,1.3-0.4,1.9s-0.6,1.1-1,1.5s-0.9,0.8-1.5,1 s-1.2,0.4-1.8,0.4c-0.6,0-1.3-0.1-1.8-0.4c-0.6-0.2-1.1-0.6-1.5-1s-0.8-0.9-1-1.5s-0.4-1.2-0.4-1.9c0-0.6,0.1-1.2,0.4-1.8 c0.2-0.6,0.6-1.1,1-1.5s0.9-0.8,1.5-1s1.2-0.4,1.8-0.4S119.1,40.6,119.7,40.9z M119.3,48.6c0.4-0.2,0.8-0.4,1.2-0.8 c0.3-0.3,0.6-0.7,0.8-1.2s0.3-0.9,0.3-1.4s-0.1-1-0.3-1.4c-0.2-0.4-0.4-0.8-0.8-1.2c-0.3-0.3-0.7-0.6-1.2-0.8 c-0.4-0.2-0.9-0.3-1.4-0.3s-1,0.1-1.4,0.3s-0.8,0.5-1.2,0.8c-0.3,0.3-0.6,0.7-0.8,1.2c-0.2,0.4-0.3,0.9-0.3,1.4s0.1,1,0.3,1.4 c0.2,0.4,0.4,0.8,0.8,1.2s0.7,0.6,1.2,0.8c0.4,0.2,0.9,0.3,1.4,0.3C118.4,48.9,118.9,48.8,119.3,48.6z"></path> <path d="M126.7,48.7h2.7v1h-3.9v-9h1.1v8H126.7z"></path> <path d="M133.2,48.7h2.7v1H132v-9h1.1L133.2,48.7L133.2,48.7z"></path> <path d="M138.6,40.7h4.9v1h-3.7v2.5h3.6v1h-3.6v3.4h3.7v1h-4.9V40.7z"></path> <path d="M155,45.2v0.4c0,0.6-0.1,1.2-0.3,1.7s-0.5,1-0.9,1.4s-0.8,0.7-1.4,0.9c-0.5,0.2-1.1,0.3-1.7,0.3c-0.6,0-1.2-0.1-1.8-0.4 c-0.6-0.2-1-0.6-1.5-1s-0.7-0.9-1-1.5c-0.2-0.6-0.4-1.2-0.4-1.8s0.1-1.2,0.4-1.8c0.2-0.6,0.6-1.1,1-1.5s0.9-0.8,1.5-1 s1.2-0.4,1.8-0.4c0.7,0,1.4,0.2,2,0.5c0.7,0.3,1.2,0.7,1.6,1.3l-0.8,0.8c-0.3-0.4-0.7-0.8-1.3-1.1c-0.5-0.3-1-0.4-1.6-0.4 c-0.5,0-1,0.1-1.4,0.3s-0.8,0.5-1.2,0.8s-0.6,0.7-0.8,1.2c-0.2,0.4-0.3,0.9-0.3,1.4s0.1,0.9,0.3,1.4c0.2,0.4,0.4,0.8,0.8,1.2 c0.3,0.4,0.7,0.6,1.1,0.8c0.4,0.2,0.9,0.3,1.4,0.3c0.4,0,0.7-0.1,1-0.2c0.3-0.1,0.7-0.3,0.9-0.6c0.3-0.3,0.5-0.5,0.7-0.9 s0.3-0.7,0.3-1h-2.3v-1h3.9V45.2z"></path> <path d="M158,40.7h4.9v1h-3.7v2.5h3.6v1h-3.6v3.4h3.7v1H158V40.7z"></path> </g> </svg> 